Coordinates
version=1
nRows=26
nColumns=22
inDegrees=yes

Units are S.I. units (second, meters, Newtons, ...)
If the header above contains a line with 'inDegrees', this indicates whether rotational values are in degrees (yes) or radians (no).

endheader
time	pelvis_tilt	pelvis_list	pelvis_rotation	pelvis_tx	pelvis_ty	pelvis_tz	hip_flexion_r	hip_adduction_r	hip_rotation_r	knee_angle_r	ankle_angle_r	subtalar_angle_r	hip_flexion_l	hip_adduction_l	hip_rotation_l	knee_angle_l	ankle_angle_l	subtalar_angle_l	lumbar_extension	lumbar_bending	lumbar_rotation
      1.50000000	      1.26879668	     -0.49533164	      4.42367913	     -0.57060709	      1.08444511	      1.15753275	     -3.49754354	      1.56354937	     -5.16888590	     -9.69142468	     13.02746692	     -2.79840483	     -2.95199824	      0.35306396	     -1.77327990	    -10.00666396	     13.03004178	     -3.25874907	     -2.05736206	     -1.36226823	     -5.34260653
      1.51000000	      1.26904243	     -0.49624998	      4.41420006	     -0.57067907	      1.08444359	      1.15767056	     -3.49217448	      1.57015649	     -5.17241498	     -9.69047783	     13.02761561	     -2.79841999	     -2.95037420	      0.34462303	     -1.77614523	    -10.00425004	     13.03017195	     -3.25780014	     -2.05422612	     -1.37051300	     -5.34456948
      1.52000000	      1.20732455	     -0.51813455	      4.38445472	     -0.57076442	      1.08435052	      1.15783385	     -3.39662567	      1.59100784	     -5.15573147	     -9.72851740	     13.03177430	     -2.79753025	     -2.87271113	      0.31646426	     -1.83766086	    -10.01715913	     13.04795731	     -3.21112838	     -1.97506166	     -1.35594623	     -5.32085550
      1.53000000	      1.21118255	     -0.51728291	      4.38185076	     -0.57081160	      1.08435265	      1.15795363	     -3.39444492	      1.59594029	     -5.15736557	     -9.73305655	     13.03289084	     -2.79758549	     -2.87617710	      0.30904188	     -1.83771503	    -10.01572419	     13.04766628	     -3.21025976	     -1.96928828	     -1.36454880	     -5.32361563
      1.54000000	      1.21389834	     -0.51966073	      4.37774494	     -0.57086180	      1.08434933	      1.15806844	     -3.37523982	      1.60194929	     -5.16349650	     -9.76805854	     13.04543672	     -2.79815433	     -2.88896279	      0.29795251	     -1.84557020	     -9.99196063	     13.04650887	     -3.20137113	     -1.96337139	     -1.36430284	     -5.33540017
      1.55000000	      1.21864998	     -0.51911319	      4.37455856	     -0.57091868	      1.08434522	      1.15819044	     -3.35546023	      1.60548866	     -5.16524022	     -9.80807330	     13.06466663	     -2.79747431	     -2.89882412	      0.28906658	     -1.85070201	     -9.97803349	     13.04489850	     -3.18785501	     -1.95980973	     -1.36912003	     -5.33965566
      1.56000000	      1.22425058	     -0.51423666	      4.36826171	     -0.57095511	      1.08434172	      1.15831492	     -3.33380388	      1.60417522	     -5.16344086	     -9.85598069	     13.08966356	     -2.79557202	     -2.91150969	      0.28509028	     -1.85682806	     -9.96550332	     13.04481231	     -3.16882512	     -1.95290884	     -1.37546702	     -5.34473133
      1.57000000	      1.23115187	     -0.50880224	      4.37150268	     -0.57100525	      1.08433935	      1.15844447	     -3.31112991	      1.60421459	     -5.15428391	     -9.90783584	     13.10997950	     -2.79416679	     -2.92520419	      0.27911722	     -1.86291573	     -9.94866328	     13.04581767	     -3.15336733	     -1.95209857	     -1.38634410	     -5.35403720
      1.58000000	      1.23708502	     -0.48987486	      4.36377214	     -0.57103625	      1.08432724	      1.15858495	     -3.27276874	      1.58732324	     -5.15297721	     -9.99187745	     13.17770736	     -2.78898500	     -2.94333107	      0.28894072	     -1.87144332	     -9.92845842	     13.04324856	     -3.10421318	     -1.94593298	     -1.41120372	     -5.34190665
      1.59000000	      1.24875841	     -0.48068385	      4.37160275	     -0.57105902	      1.08433024	      1.15870694	     -3.24761087	      1.58402495	     -5.12808418	    -10.06246627	     13.18821418	     -2.78825622	     -2.96510276	      0.28640810	     -1.87500232	     -9.90982952	     13.04578423	     -3.08943921	     -1.94603382	     -1.42026565	     -5.37334494
      1.60000000	      1.26217513	     -0.45179173	      4.37537299	     -0.57107508	      1.08432328	      1.15885252	     -3.20706369	      1.55949852	     -5.11881697	    -10.17145298	     13.26927234	     -2.78797206	     -2.99677824	      0.30471941	     -1.87153489	     -9.87942825	     13.04102369	     -3.03822659	     -1.94981328	     -1.45711589	     -5.37578987
      1.61000000	      1.27899679	     -0.42125171	      4.38918628	     -0.57107349	      1.08432494	      1.15899286	     -3.17219331	      1.53581887	     -5.09557204	    -10.27952672	     13.32418414	     -2.79021428	     -3.03126348	      0.32350501	     -1.86398826	     -9.85143693	     13.03580726	     -2.99126982	     -1.95628119	     -1.49383674	     -5.40836261
      1.62000000	      1.29802016	     -0.40488666	      4.40951197	     -0.57104720	      1.08433226	      1.15914250	     -3.14449532	      1.53085123	     -5.05707866	    -10.37812310	     13.33868863	     -2.79323020	     -3.06523693	      0.32499355	     -1.86204826	     -9.82815328	     13.03752342	     -2.97680930	     -1.95993501	     -1.51247569	     -5.46521908
      1.63000000	      1.32170618	     -0.35256801	      4.43717185	     -0.57102028	      1.08433701	      1.15930810	     -3.10717154	      1.48790876	     -5.05221477	    -10.51393216	     13.44563605	     -2.80850986	     -3.11438288	      0.36428844	     -1.82905154	     -9.78990234	     13.02134775	     -2.92368109	     -1.97641335	     -1.57931483	     -5.51043300
      1.64000000	      1.34233812	     -0.30759431	      4.47156702	     -0.57098160	      1.08434630	      1.15949141	     -3.07290946	      1.45576691	     -5.04250236	    -10.63695551	     13.50251830	     -2.82647044	     -3.15503706	      0.39345416	     -1.80302957	     -9.75956426	     13.00523206	     -2.87448035	     -1.98672050	     -1.63719022	     -5.58617922
      1.65000000	      1.35979091	     -0.26736081	      4.50780097	     -0.57093851	      1.08435116	      1.15970573	     -3.03412679	      1.43067618	     -5.04016464	    -10.76150828	     13.56161658	     -2.84782332	     -3.19056399	      0.41600205	     -1.77468192	     -9.73170033	     12.99228366	     -2.83259687	     -1.99388338	     -1.69169526	     -5.66821506
      1.66000000	      1.37578719	     -0.24808258	      4.53201102	     -0.57088036	      1.08436062	      1.15997796	     -3.00078557	      1.43176395	     -5.00955940	    -10.86671462	     13.57020068	     -2.85565253	     -3.22303950	      0.41364259	     -1.77469019	     -9.70601536	     12.99187293	     -2.82091283	     -1.99542266	     -1.72223370	     -5.75345159
      1.67000000	      1.38409395	     -0.19018645	      4.57963085	     -0.57083039	      1.08434772	      1.16023459	     -2.94674505	      1.38811159	     -5.06248614	    -11.00664129	     13.67618626	     -2.88959912	     -3.24708935	      0.45279133	     -1.72300591	     -9.68284841	     12.96480980	     -2.77030976	     -1.99595568	     -1.80323300	     -5.84784319
      1.68000000	      1.38652958	     -0.15155317	      4.61806668	     -0.57075768	      1.08433278	      1.16054191	     -2.89661889	      1.36819648	     -5.09242371	    -11.12313300	     13.72651759	     -2.91753116	     -3.26231853	      0.46930873	     -1.69057570	     -9.66545255	     12.95180176	     -2.72686607	     -1.98465925	     -1.86163820	     -5.94703095
      1.69000000	      1.39761205	     -0.13646413	      4.63682980	     -0.57064832	      1.08432977	      1.16089849	     -2.86861503	      1.37666848	     -5.07424960	    -11.21189102	     13.73565928	     -2.92428778	     -3.29026546	      0.45881862	     -1.69680510	     -9.64265433	     12.95494439	     -2.71731280	     -1.97622773	     -1.88962878	     -6.02557812
      1.70000000	      1.40257350	     -0.09477114	      4.67404441	     -0.57054631	      1.08429892	      1.16124094	     -2.82140233	      1.35243523	     -5.14140515	    -11.33250178	     13.83825811	     -2.95003487	     -3.30286673	      0.47680409	     -1.66016130	     -9.63953907	     12.94505965	     -2.67153474	     -1.96504675	     -1.95019089	     -6.11594249
      1.71000000	      1.40549459	     -0.06634961	      4.70337370	     -0.57041411	      1.08427003	      1.16160973	     -2.78729833	      1.34453300	     -5.17303273	    -11.42403858	     13.89145862	     -2.96453477	     -3.31276264	      0.47977160	     -1.64029701	     -9.63843473	     12.94772614	     -2.63080930	     -1.94465067	     -1.99234528	     -6.19965353
      1.72000000	      1.41730496	     -0.05150960	      4.71139603	     -0.57024750	      1.08425233	      1.16203025	     -2.77285880	      1.35354675	     -5.16993460	    -11.49454322	     13.91747897	     -2.96807719	     -3.33497241	      0.46705553	     -1.64310155	     -9.63629197	     12.95421016	     -2.61737852	     -1.92743512	     -2.01509220	     -6.26456809
      1.73000000	      1.42793960	     -0.02232399	      4.74352863	     -0.57008072	      1.08421308	      1.16244081	     -2.75676806	      1.34712428	     -5.22521677	    -11.57289453	     14.01827367	     -2.97306060	     -3.33883151	      0.46618875	     -1.62333844	     -9.66570048	     12.97123343	     -2.57315280	     -1.91014934	     -2.05847396	     -6.32783844
      1.74000000	      1.43700972	      0.00143452	      4.76636017	     -0.56989630	      1.08417534	      1.16288636	     -2.74514999	      1.34834641	     -5.25611227	    -11.63961022	     14.08693006	     -2.97078359	     -3.34042090	      0.45911512	     -1.60644412	     -9.69840401	     12.99032830	     -2.52862275	     -1.88654265	     -2.09228012	     -6.38944553
      1.75000000	      1.45383683	      0.01832842	      4.77592257	     -0.56969368	      1.08415056	      1.16336976	     -2.74415813	      1.35946553	     -5.25465260	    -11.70135619	     14.13061597	     -2.96914513	     -3.35030594	      0.44362326	     -1.60018962	     -9.73320392	     13.00290550	     -2.50951231	     -1.86705503	     -2.11322284	     -6.43546225
